<?xml version="1.0" standalone="no"?>
<!DOCTYPE svg PUBLIC "-//W3C//DTD SVG 20010904//EN"
 "http://www.w3.org/TR/2001/REC-SVG-20010904/DTD/svg10.dtd">
<svg version="1.0" xmlns="http://www.w3.org/2000/svg"
 width="400.000000pt" height="400.000000pt" viewBox="0 0 400.000000 400.000000"
 preserveAspectRatio="xMidYMid meet">
<metadata>
Created by potrace 1.14, written by Peter Selinger 2001-2017
</metadata>
<g transform="translate(0.000000,400.000000) scale(0.100000,-0.100000)"
fill="#000000" stroke="none">
<path d="M2180 2365 l0 -1275 725 0 725 0 0 185 0 185 185 0 185 0 0 545 0
545 -185 0 -185 0 0 180 0 180 -360 0 -360 0 0 185 0 185 -185 0 -185 0 0 180
0 180 -180 0 -180 0 0 -1275z m1090 -360 l0 -545 -180 0 -180 0 0 545 0 545
180 0 180 0 0 -545z"/>
<path d="M360 2730 l0 -180 -180 0 -180 0 0 -1090 0 -1090 180 0 180 0 0 180
0 180 180 0 180 0 0 180 0 180 550 0 550 0 0 910 0 910 -730 0 -730 0 0 -180z
m1090 -725 l0 -545 -180 0 -180 0 0 545 0 545 180 0 180 0 0 -545z"/>
</g>
</svg>
