<?xml version="1.0" ?><svg id="Layer_1" style="enable-background:new 1 -1 100 100;" version="1.1" viewBox="1 -1 100 100" xml:space="preserve" xmlns="http://www.w3.org/2000/svg" xmlns:xlink="http://www.w3.org/1999/xlink"><title/><g><path d="M76,29.5H26c-5,0-9,4-9,9v43c0,5,4,9,9,9h50c5,0,9-4,9-9v-43C85,33.5,81,29.5,76,29.5z M65.3,53.8c0,1.7-1.3,3-3,3H39.7   c-1.7,0-3-1.3-3-3v-7.6c0-1.7,1.3-3,3-3s3,1.3,3,3v4.6h16.6v-4.6c0-1.7,1.3-3,3-3s3,1.3,3,3V53.8z"/><path d="M26,24.5h50c1.7,0,3-1.3,3-3s-1.3-3-3-3H26c-1.7,0-3,1.3-3,3S24.3,24.5,26,24.5z"/><path d="M31,13.5h40c1.7,0,3-1.3,3-3s-1.3-3-3-3H31c-1.7,0-3,1.3-3,3S29.3,13.5,31,13.5z"/></g></svg>